<svg width="20" height="21" viewBox="0 0 20 21" fill="none" xmlns="http://www.w3.org/2000/svg">
<path d="M8 10.4496H11.5V11.7537C11.5 11.9878 11.6 12.1466 11.8 12.2302C12 12.3138 12.1833 12.272 12.35 12.1048L14.3 10.1486C14.5 9.94798 14.6 9.7139 14.6 9.44639C14.6 9.17887 14.5 8.94479 14.3 8.74416L12.35 6.78795C12.1833 6.62075 12 6.57895 11.8 6.66255C11.6 6.74615 11.5 6.90499 11.5 7.13906V8.4432H7C6.71667 8.4432 6.47933 8.53917 6.288 8.73112C6.096 8.92373 6 9.16215 6 9.44639V12.4559C6 12.7402 6.096 12.9783 6.288 13.1702C6.47933 13.3628 6.71667 13.4591 7 13.4591C7.28333 13.4591 7.521 13.3628 7.713 13.1702C7.90433 12.9783 8 12.7402 8 12.4559V10.4496ZM10 20.4814C9.75 20.4814 9.504 20.4313 9.262 20.3309C9.02067 20.2306 8.8 20.0801 8.6 19.8795L0.6 11.854C0.4 11.6534 0.25 11.432 0.15 11.1899C0.0500001 10.9472 0 10.7004 0 10.4496C0 10.1988 0.0500001 9.95199 0.15 9.70922C0.25 9.46712 0.4 9.24575 0.6 9.04511L8.6 1.01964C8.8 0.818998 9.02067 0.668521 9.262 0.568202C9.504 0.467884 9.75 0.417725 10 0.417725C10.25 0.417725 10.496 0.467884 10.738 0.568202C10.9793 0.668521 11.2 0.818998 11.4 1.01964L19.4 9.04511C19.6 9.24575 19.75 9.46712 19.85 9.70922C19.95 9.95199 20 10.1988 20 10.4496C20 10.7004 19.95 10.9472 19.85 11.1899C19.75 11.432 19.6 11.6534 19.4 11.854L11.4 19.8795C11.2 20.0801 10.9793 20.2306 10.738 20.3309C10.496 20.4313 10.25 20.4814 10 20.4814ZM6 14.4623L10 18.475L18 10.4496L10 2.42409L2 10.4496L6 14.4623Z" fill="white"/>
</svg>
