<svg width="12" height="20" viewBox="0 0 12 20" fill="none" xmlns="http://www.w3.org/2000/svg">
<path d="M11.0604 0.454011C11.3417 0.735303 11.4996 1.11676 11.4996 1.51451C11.4996 1.91226 11.3417 2.29372 11.0604 2.57501L3.63545 10L11.0604 17.425C11.3337 17.7079 11.4849 18.0868 11.4815 18.4801C11.478 18.8734 11.3203 19.2496 11.0422 19.5277C10.7641 19.8059 10.3878 19.9636 9.99455 19.967C9.60126 19.9704 9.22235 19.8193 8.93945 19.546L0.45395 11.0605C0.172743 10.7792 0.0147705 10.3978 0.0147705 10C0.0147705 9.60227 0.172743 9.2208 0.45395 8.93951L8.93945 0.454011C9.22074 0.172805 9.6022 0.0148315 9.99995 0.0148315C10.3977 0.0148315 10.7792 0.172805 11.0604 0.454011Z" fill="#131313"/>
</svg>
