<svg width="11" height="13" viewBox="0 0 11 13" fill="none" xmlns="http://www.w3.org/2000/svg">
<path d="M1.48186 3.92937C1.3028 2.74999 2.13436 1.69062 3.40467 1.30249C3.6301 1.23357 3.87332 1.25319 4.08479 1.35735C4.29625 1.46152 4.46005 1.64239 4.5428 1.86312L4.95061 2.95062C5.01626 3.12557 5.02813 3.31615 4.9847 3.49789C4.94127 3.67963 4.84451 3.84425 4.70686 3.97062L3.49373 5.08156C3.43394 5.13643 3.38938 5.20586 3.3644 5.28309C3.33943 5.36031 3.33489 5.44268 3.35123 5.52218L3.36248 5.57093L3.39155 5.69281C3.54241 6.28497 3.77229 6.85414 4.07498 7.38499C4.40471 7.94909 4.81391 8.46279 5.28998 8.91031L5.32748 8.94406C5.38805 8.99781 5.4615 9.03496 5.5407 9.05189C5.61989 9.06881 5.70211 9.06493 5.77936 9.04062L7.3478 8.54656C7.52604 8.49059 7.71695 8.48916 7.89602 8.54245C8.07508 8.59573 8.23415 8.7013 8.3528 8.84562L9.0953 9.74656C9.40467 10.1216 9.36717 10.6728 9.01186 11.0037C8.03967 11.9103 6.7028 12.0959 5.7728 11.3487C4.63282 10.4292 3.67182 9.30771 2.9378 8.04031C2.19782 6.77387 1.70354 5.37915 1.48092 3.92937H1.48186ZM4.33467 5.58406L5.33967 4.66156C5.61514 4.40893 5.80883 4.07975 5.89586 3.71625C5.98289 3.35276 5.9593 2.97154 5.82811 2.62156L5.42123 1.53406C5.25468 1.08991 4.92505 0.725988 4.4995 0.516436C4.07395 0.306885 3.58451 0.267477 3.13092 0.406244C1.55311 0.889056 0.286546 2.30374 0.554671 4.07093C0.742171 5.30468 1.17436 6.87406 2.1278 8.51281C2.91971 9.8794 3.95635 11.0886 5.18592 12.08C6.58092 13.2003 8.4428 12.8178 9.65217 11.6909C9.99822 11.3687 10.2083 10.9266 10.2394 10.4548C10.2706 9.98304 10.1206 9.51713 9.81998 9.15218L9.07748 8.25031C8.83996 7.96201 8.52173 7.75123 8.16361 7.64499C7.80549 7.53876 7.4238 7.54191 7.06748 7.65406L5.7653 8.06374C5.42908 7.71709 5.13458 7.33228 4.8878 6.91718C4.64941 6.49752 4.46364 6.05009 4.33467 5.58499V5.58406Z" fill="#ED1C24"/>
</svg>
