<svg width="22" height="23" viewBox="0 0 22 23" fill="none" xmlns="http://www.w3.org/2000/svg">
<path id="Vector" d="M9.55423 5.67224L6.17123 1.7548C5.78123 1.30337 5.06623 1.30537 4.61323 1.76082L1.83123 4.5567C1.00323 5.38834 0.766232 6.62326 1.24523 7.6134C4.10685 13.5572 8.88528 18.3576 14.8062 21.2366C15.7922 21.7172 17.0222 21.4794 17.8502 20.6478L20.6582 17.8258C21.1132 17.3694 21.1142 16.6481 20.6602 16.2568L16.7402 12.8811C16.3302 12.528 15.6932 12.5741 15.2822 12.9875L13.9182 14.3578C13.8484 14.4312 13.7565 14.4796 13.6566 14.4956C13.5567 14.5115 13.4543 14.4941 13.3652 14.4461C11.1357 13.1581 9.28622 11.3003 8.00523 9.062C7.95726 8.97246 7.93989 8.86962 7.95578 8.76923C7.97168 8.66884 8.01996 8.57645 8.09323 8.50623L9.45323 7.1409C9.86523 6.72558 9.91023 6.08354 9.55423 5.67123V5.67224Z" stroke="white" stroke-width="2" stroke-linecap="round" stroke-linejoin="round"/>
</svg>
