<svg width="31" height="30" viewBox="0 0 31 30" fill="none" xmlns="http://www.w3.org/2000/svg">
<path d="M7.83387 20C7.97137 19.3875 7.72137 18.5125 7.28387 18.075L4.24637 15.0375C3.29637 14.0875 2.92137 13.075 3.19637 12.2C3.48387 11.325 4.37137 10.725 5.69637 10.5L9.59637 9.85C10.1589 9.75 10.8464 9.25 11.1089 8.7375L13.2589 4.425C13.8839 3.1875 14.7339 2.5 15.6589 2.5C16.5839 2.5 17.4339 3.1875 18.0589 4.425L20.2089 8.7375C20.3714 9.0625 20.7089 9.375 21.0714 9.5875L7.60887 23.05C7.43387 23.225 7.13387 23.0625 7.18387 22.8125L7.83387 20Z" fill="#ED1C24"/>
<path d="M24.0339 18.0751C23.5839 18.5251 23.3339 19.3876 23.4839 20.0001L24.3464 23.7626C24.7089 25.3251 24.4839 26.5001 23.7089 27.0626C23.3964 27.2876 23.0214 27.4001 22.5839 27.4001C21.9464 27.4001 21.1964 27.1626 20.3714 26.6751L16.7089 24.5001C16.1339 24.1626 15.1839 24.1626 14.6089 24.5001L10.9464 26.6751C9.55887 27.4876 8.37137 27.6251 7.60887 27.0626C7.32137 26.8501 7.10887 26.5626 6.97137 26.1876L22.1714 10.9876C22.7464 10.4126 23.5589 10.1501 24.3464 10.2876L25.6089 10.5001C26.9339 10.7251 27.8214 11.3251 28.1089 12.2001C28.3839 13.0751 28.0089 14.0876 27.0589 15.0376L24.0339 18.0751Z" fill="#ED1C24"/>
</svg>
