<svg width="28" height="28" viewBox="0 0 28 28" fill="none" xmlns="http://www.w3.org/2000/svg">
<path d="M21.075 27.3375C20.4125 27.3375 19.5625 27.125 18.5 26.5L14.7625 24.2875C14.375 24.0625 13.625 24.0625 13.25 24.2875L9.5 26.5C7.2875 27.8125 5.9875 27.2875 5.4 26.8625C4.825 26.4375 3.925 25.35 4.5125 22.85L5.4 19.0125C5.5 18.6125 5.3 17.925 5 17.625L1.9 14.525C0.350002 12.975 0.475002 11.65 0.687502 11C0.900002 10.35 1.575 9.20002 3.725 8.83752L7.7125 8.17502C8.0875 8.11252 8.625 7.71252 8.7875 7.37502L11 2.96252C12 0.950024 13.3125 0.650024 14 0.650024C14.6875 0.650024 16 0.950024 17 2.96252L19.2 7.36252C19.375 7.70002 19.9125 8.10002 20.2875 8.16252L24.275 8.82502C26.4375 9.18752 27.1125 10.3375 27.3125 10.9875C27.5125 11.6375 27.6375 12.9625 26.1 14.5125L23 17.625C22.7 17.925 22.5125 18.6 22.6 19.0125L23.4875 22.85C24.0625 25.35 23.175 26.4375 22.6 26.8625C22.2875 27.0875 21.7875 27.3375 21.075 27.3375ZM14 22.2375C14.6125 22.2375 15.225 22.3875 15.7125 22.675L19.45 24.8875C20.5375 25.5375 21.225 25.5375 21.4875 25.35C21.75 25.1625 21.9375 24.5 21.6625 23.275L20.775 19.4375C20.5375 18.4 20.925 17.0625 21.675 16.3L24.775 13.2C25.3875 12.5875 25.6625 11.9875 25.5375 11.575C25.4 11.1625 24.825 10.825 23.975 10.6875L19.9875 10.025C19.025 9.86252 17.975 9.08752 17.5375 8.21252L15.3375 3.81252C14.9375 3.01252 14.4375 2.53752 14 2.53752C13.5625 2.53752 13.0625 3.01252 12.675 3.81252L10.4625 8.21252C10.025 9.08752 8.975 9.86252 8.0125 10.025L4.0375 10.6875C3.1875 10.825 2.6125 11.1625 2.475 11.575C2.3375 11.9875 2.625 12.6 3.2375 13.2L6.3375 16.3C7.0875 17.05 7.475 18.4 7.2375 19.4375L6.35 23.275C6.0625 24.5125 6.2625 25.1625 6.525 25.35C6.7875 25.5375 7.4625 25.525 8.5625 24.8875L12.3 22.675C12.775 22.3875 13.3875 22.2375 14 22.2375Z" fill="#ED1C24"/>
</svg>
