<svg width="20" height="20" viewBox="0 0 20 20" fill="none" xmlns="http://www.w3.org/2000/svg">
<path d="M14.0666 16.875C12.4666 16.875 10.9583 16.025 10.1416 14.65C9.70827 13.95 9.48328 13.1333 9.48328 12.2916C9.48328 9.76665 11.5416 7.70831 14.0666 7.70831C16.5916 7.70831 18.6499 9.76665 18.6499 12.2916C18.6499 13.1333 18.4166 13.95 17.9833 14.6583C17.1749 16.025 15.6749 16.875 14.0666 16.875ZM14.0666 8.95831C12.2249 8.95831 10.7333 10.45 10.7333 12.2916C10.7333 12.9 10.8999 13.4916 11.2166 14C11.8166 15.0083 12.9083 15.625 14.0666 15.625C15.2499 15.625 16.3166 15.025 16.9166 14.0083C17.2333 13.4916 17.3999 12.9 17.3999 12.2916C17.3999 10.45 15.9083 8.95831 14.0666 8.95831Z" fill="#292D32"/>
<path d="M15.5499 12.9H12.5916C12.2499 12.9 11.9666 12.6166 11.9666 12.275C11.9666 11.9333 12.2499 11.65 12.5916 11.65H15.5499C15.8916 11.65 16.1749 11.9333 16.1749 12.275C16.1749 12.6166 15.8916 12.9 15.5499 12.9Z" fill="#292D32"/>
<path d="M14.0665 14.4083C13.7249 14.4083 13.4415 14.125 13.4415 13.7833V10.8333C13.4415 10.4916 13.7249 10.2083 14.0665 10.2083C14.4082 10.2083 14.6915 10.4916 14.6915 10.8333V13.7916C14.6915 14.1333 14.4165 14.4083 14.0665 14.4083Z" fill="#292D32"/>
<path d="M9.10821 18.9584C8.70821 18.9584 8.30821 18.8584 7.94988 18.6584C7.20821 18.2417 6.76654 17.4917 6.76654 16.65V12.1917C6.76654 11.775 6.49155 11.1417 6.22488 10.8167L3.05821 7.49168C2.53321 6.95001 2.12488 6.0417 2.12488 5.37503V3.43335C2.12488 2.09168 3.14155 1.04169 4.43321 1.04169H15.5499C16.8249 1.04169 17.8582 2.07504 17.8582 3.35004V5.20001C17.8582 6.07501 17.3415 7.05838 16.8415 7.57504L15.3415 8.90001C15.1915 9.03335 14.9832 9.08333 14.7832 9.04167C14.5582 8.98333 14.3165 8.95835 14.0665 8.95835C12.2249 8.95835 10.7332 10.45 10.7332 12.2917C10.7332 12.9 10.8999 13.4917 11.2165 14.0084C11.4832 14.45 11.8415 14.8167 12.2582 15.075C12.4415 15.1917 12.5582 15.3917 12.5582 15.6083V15.8917C12.5582 16.55 12.1582 17.475 11.4915 17.8667L10.3415 18.6084C9.96655 18.8417 9.53321 18.9584 9.10821 18.9584ZM4.44155 2.29169C3.84988 2.29169 3.38321 2.79168 3.38321 3.43335V5.37503C3.38321 5.67503 3.63321 6.2917 3.96654 6.62503L7.17488 10C7.59988 10.525 8.02488 11.4167 8.02488 12.2V16.6583C8.02488 17.2083 8.40821 17.4834 8.56654 17.575C8.92488 17.775 9.34988 17.7667 9.67488 17.5667L10.8415 16.8167C11.0665 16.6833 11.2915 16.2584 11.3082 15.9584C10.8499 15.6167 10.4499 15.175 10.1499 14.675C9.71655 13.9667 9.48321 13.15 9.48321 12.3167C9.48321 9.79171 11.5415 7.73338 14.0665 7.73338C14.2999 7.73338 14.5332 7.75004 14.7499 7.78338L15.9832 6.69171C16.2665 6.40004 16.6165 5.70836 16.6165 5.2167V3.36667C16.6165 2.78334 16.1415 2.30837 15.5582 2.30837H4.44155V2.29169Z" fill="#292D32"/>
</svg>
