<svg width="27" height="26" viewBox="0 0 27 26" fill="none" xmlns="http://www.w3.org/2000/svg">
<path d="M15.6228 2.24458L23.8049 8.79025C24.2145 9.12541 24.5885 9.66824 24.8338 10.3101C25.0787 10.9512 25.1627 11.606 25.0835 12.1296L23.5108 21.5414C23.5106 21.5424 23.5104 21.5434 23.5103 21.5444C23.2285 23.1577 21.64 24.5 20.021 24.5H6.77103C5.12457 24.5 3.5761 23.1928 3.29447 21.5579C3.29435 21.5572 3.29424 21.5566 3.29412 21.5559L1.71985 12.1352L1.71946 12.1329C1.63017 11.6061 1.70826 10.9509 1.95227 10.311C2.19624 9.67124 2.57457 9.12942 2.99471 8.7942L2.99645 8.79281L11.1839 2.23031L11.1847 2.22969C12.4008 1.25301 14.3814 1.25576 15.6223 2.24415C15.6225 2.24429 15.6226 2.24444 15.6228 2.24458ZM13.396 22.4375C14.4608 22.4375 15.3335 21.5648 15.3335 20.5V16.75C15.3335 15.6852 14.4608 14.8125 13.396 14.8125C12.3312 14.8125 11.4585 15.6852 11.4585 16.75V20.5C11.4585 21.5648 12.3312 22.4375 13.396 22.4375Z" stroke="#ED1C24" stroke-width="2"/>
</svg>
