<svg width="27" height="26" viewBox="0 0 27 26" fill="none" xmlns="http://www.w3.org/2000/svg">
<path d="M24.5375 8.01252L16.35 1.46252C14.75 0.187523 12.25 0.175023 10.6625 1.45002L2.475 8.01252C1.3 8.95002 0.587499 10.825 0.837499 12.3L2.4125 21.725C2.775 23.8375 4.7375 25.5 6.875 25.5H20.125C22.2375 25.5 24.2375 23.8 24.6 21.7125L26.175 12.2875C26.4 10.825 25.6875 8.95002 24.5375 8.01252ZM14.4375 20.5C14.4375 21.0125 14.0125 21.4375 13.5 21.4375C12.9875 21.4375 12.5625 21.0125 12.5625 20.5V16.75C12.5625 16.2375 12.9875 15.8125 13.5 15.8125C14.0125 15.8125 14.4375 16.2375 14.4375 16.75V20.5Z" fill="#ED1C24"/>
</svg>
