<svg width="9" height="13" viewBox="0 0 9 13" fill="none" xmlns="http://www.w3.org/2000/svg">
<path d="M4.5 0.506714C2.4285 0.506714 0.75 2.17846 0.75 4.24921C0.75 7.82971 4.5 12.4992 4.5 12.4992C4.5 12.4992 8.25 7.82896 8.25 4.24921C8.25 2.17921 6.5715 0.506714 4.5 0.506714ZM4.5 6.31996C3.96294 6.31996 3.44787 6.10662 3.06811 5.72686C2.68835 5.34709 2.475 4.83203 2.475 4.29496C2.475 3.7579 2.68835 3.24283 3.06811 2.86307C3.44787 2.48331 3.96294 2.26996 4.5 2.26996C5.03706 2.26996 5.55213 2.48331 5.93189 2.86307C6.31165 3.24283 6.525 3.7579 6.525 4.29496C6.525 4.83203 6.31165 5.34709 5.93189 5.72686C5.55213 6.10662 5.03706 6.31996 4.5 6.31996Z" fill="#ED1C24"/>
</svg>
