<svg width="18" height="16" viewBox="0 0 18 16" fill="none" xmlns="http://www.w3.org/2000/svg">
<path d="M3.99719 2C4.26241 2 4.51676 1.89464 4.7043 1.70711C4.89184 1.51957 4.99719 1.26522 4.99719 1C4.99719 0.734784 4.89184 0.48043 4.7043 0.292893C4.51676 0.105357 4.26241 0 3.99719 0H1.99719C1.73198 0 1.47762 0.105357 1.29009 0.292893C1.10255 0.48043 0.997192 0.734784 0.997192 1V15C0.997192 15.2652 1.10255 15.5196 1.29009 15.7071C1.47762 15.8946 1.73198 16 1.99719 16H3.99719C4.26241 16 4.51676 15.8946 4.7043 15.7071C4.89184 15.5196 4.99719 15.2652 4.99719 15C4.99719 14.7348 4.89184 14.4804 4.7043 14.2929C4.51676 14.1054 4.26241 14 3.99719 14H2.99719V2H3.99719ZM17.8172 7.42L14.9972 3.42C14.8443 3.20441 14.6122 3.05814 14.3517 3.01317C14.0912 2.9682 13.8236 3.02818 13.6072 3.18C13.499 3.25579 13.407 3.35224 13.3363 3.46381C13.2656 3.57537 13.2178 3.69982 13.1954 3.82998C13.1731 3.96015 13.1768 4.09344 13.2063 4.22217C13.2358 4.3509 13.2905 4.47252 13.3672 4.58L15.0872 7H6.99719C6.73198 7 6.47762 7.10536 6.29009 7.29289C6.10255 7.48043 5.99719 7.73478 5.99719 8C5.99719 8.26522 6.10255 8.51957 6.29009 8.70711C6.47762 8.89464 6.73198 9 6.99719 9H14.9972L13.1972 11.4C13.1184 11.5051 13.0611 11.6246 13.0285 11.7518C12.9959 11.879 12.9887 12.0114 13.0072 12.1414C13.0258 12.2714 13.0698 12.3965 13.1367 12.5095C13.2036 12.6225 13.2921 12.7212 13.3972 12.8C13.5703 12.9298 13.7808 13 13.9972 13C14.1524 13 14.3056 12.9639 14.4444 12.8944C14.5833 12.825 14.704 12.7242 14.7972 12.6L17.7972 8.6C17.9253 8.43087 17.9962 8.22539 17.9998 8.01326C18.0034 7.80114 17.9395 7.59338 17.8172 7.42Z" fill="black"/>
</svg>
