<svg width="31" height="30" viewBox="0 0 31 30" fill="none" xmlns="http://www.w3.org/2000/svg">
<path d="M26.0494 17.575L24.6369 15.225C24.3244 14.7125 24.0494 13.725 24.0494 13.125V10.7875C24.0494 6.25 20.3619 2.5625 15.8369 2.5625C11.2994 2.575 7.61191 6.25 7.61191 10.7875V13.1125C7.61191 13.7125 7.33691 14.7 7.03691 15.2125L5.62441 17.5625C5.08691 18.475 4.96191 19.5125 5.29941 20.4125C5.63691 21.325 6.39941 22.05 7.39941 22.375C8.74941 22.825 10.1119 23.15 11.4994 23.3875C11.6369 23.4125 11.7744 23.425 11.9119 23.45C12.0869 23.475 12.2744 23.5 12.4619 23.525C12.7869 23.575 13.1119 23.6125 13.4494 23.6375C14.2369 23.7125 15.0369 23.75 15.8369 23.75C16.6244 23.75 17.4119 23.7125 18.1869 23.6375C18.4744 23.6125 18.7619 23.5875 19.0369 23.55C19.2619 23.525 19.4869 23.5 19.7119 23.4625C19.8494 23.45 19.9869 23.425 20.1244 23.4C21.5244 23.175 22.9119 22.825 24.2619 22.375C25.2244 22.05 25.9619 21.325 26.3119 20.4C26.6619 19.4625 26.5619 18.4375 26.0494 17.575ZM16.7494 12.5C16.7494 13.025 16.3244 13.45 15.7994 13.45C15.2744 13.45 14.8494 13.025 14.8494 12.5V8.625C14.8494 8.1 15.2744 7.675 15.7994 7.675C16.3244 7.675 16.7494 8.1 16.7494 8.625V12.5Z" fill="#ED1C24"/>
<path d="M19.3494 25.0125C18.8244 26.4625 17.4369 27.5 15.8119 27.5C14.8244 27.5 13.8494 27.1 13.1619 26.3875C12.7619 26.0125 12.4619 25.5125 12.2869 25C12.4494 25.025 12.6119 25.0375 12.7869 25.0625C13.0744 25.1 13.3744 25.1375 13.6744 25.1625C14.3869 25.225 15.1119 25.2625 15.8369 25.2625C16.5494 25.2625 17.2619 25.225 17.9619 25.1625C18.2244 25.1375 18.4869 25.125 18.7369 25.0875C18.9369 25.0625 19.1369 25.0375 19.3494 25.0125Z" fill="#ED1C24"/>
</svg>
