<svg width="31" height="30" viewBox="0 0 31 30" fill="none" xmlns="http://www.w3.org/2000/svg">
<g id="notification-bing">
<path id="Vector" d="M15.5 13.15C14.9875 13.15 14.5625 12.725 14.5625 12.2125V8.05005C14.5625 7.53755 14.9875 7.11255 15.5 7.11255C16.0125 7.11255 16.4375 7.53755 16.4375 8.05005V12.2125C16.4375 12.7375 16.0125 13.15 15.5 13.15Z" fill="#ED1C24"/>
<path id="Vector_2" d="M15.525 25.4375C12.3 25.4375 9.0875 24.9251 6.025 23.9001C4.8875 23.525 4.025 22.7125 3.65 21.6875C3.275 20.6625 3.4 19.4875 4.0125 18.4625L5.6 15.8125C5.95 15.225 6.2625 14.125 6.2625 13.4375V10.8125C6.2625 5.70005 10.4125 1.55005 15.525 1.55005C20.6375 1.55005 24.7875 5.70005 24.7875 10.8125V13.4375C24.7875 14.1125 25.1 15.225 25.45 15.8125L27.0375 18.4625C27.625 19.4375 27.725 20.6 27.3375 21.6625C26.95 22.725 26.1 23.5375 25.025 23.9001C21.9625 24.9375 18.75 25.4375 15.525 25.4375ZM15.525 3.43755C11.45 3.43755 8.1375 6.75005 8.1375 10.825V13.45C8.1375 14.4625 7.7375 15.925 7.2125 16.7875L5.625 19.4501C5.3 19.9875 5.225 20.5625 5.4125 21.0625C5.6 21.5625 6.025 21.9375 6.625 22.1375C12.375 24.05 18.7 24.05 24.45 22.1375C24.9875 21.9625 25.4 21.5625 25.5875 21.0375C25.7875 20.5125 25.725 19.9375 25.4375 19.4501L23.85 16.8C23.325 15.9375 22.925 14.475 22.925 13.4625V10.8375C22.9125 6.75005 19.6 3.43755 15.525 3.43755Z" fill="#ED1C24"/>
<path id="Vector_3" d="M15.5 28.625C14.1625 28.625 12.85 28.075 11.9 27.125C10.95 26.175 10.4 24.8625 10.4 23.525H12.275C12.275 24.375 12.625 25.2 13.225 25.8C13.825 26.4 14.65 26.75 15.5 26.75C17.275 26.75 18.725 25.3 18.725 23.525H20.6C20.6 26.3375 18.3125 28.625 15.5 28.625Z" fill="#ED1C24"/>
</g>
</svg>
