<svg width="30" height="30" viewBox="0 0 30 30" fill="none" xmlns="http://www.w3.org/2000/svg">
<path d="M15.15 16.9125C15.125 16.9125 15.0875 16.9125 15.0625 16.9125C15.025 16.9125 14.975 16.9125 14.9375 16.9125C12.1 16.825 9.97501 14.6125 9.97501 11.8875C9.97501 9.11248 12.2375 6.84998 15.0125 6.84998C17.7875 6.84998 20.05 9.11248 20.05 11.8875C20.0375 14.625 17.9 16.825 15.1875 16.9125C15.1625 16.9125 15.1625 16.9125 15.15 16.9125ZM15 8.71248C13.25 8.71248 11.8375 10.1375 11.8375 11.875C11.8375 13.5875 13.175 14.975 14.875 15.0375C14.9125 15.025 15.0375 15.025 15.1625 15.0375C16.8375 14.95 18.15 13.575 18.1625 11.875C18.1625 10.1375 16.75 8.71248 15 8.71248Z" fill="#ED1C24"/>
<path d="M15 28.4375C11.6375 28.4375 8.42499 27.1875 5.93749 24.9125C5.71249 24.7125 5.61249 24.4125 5.63749 24.125C5.79999 22.6375 6.72499 21.25 8.26249 20.225C11.9875 17.75 18.025 17.75 21.7375 20.225C23.275 21.2625 24.2 22.6375 24.3625 24.125C24.4 24.425 24.2875 24.7125 24.0625 24.9125C21.575 27.1875 18.3625 28.4375 15 28.4375ZM7.59999 23.875C9.67499 25.6125 12.2875 26.5625 15 26.5625C17.7125 26.5625 20.325 25.6125 22.4 23.875C22.175 23.1125 21.575 22.375 20.6875 21.775C17.6125 19.725 12.4 19.725 9.29999 21.775C8.41249 22.375 7.82499 23.1125 7.59999 23.875Z" fill="#ED1C24"/>
<path d="M15 28.4375C7.5875 28.4375 1.5625 22.4125 1.5625 15C1.5625 7.5875 7.5875 1.5625 15 1.5625C22.4125 1.5625 28.4375 7.5875 28.4375 15C28.4375 22.4125 22.4125 28.4375 15 28.4375ZM15 3.4375C8.625 3.4375 3.4375 8.625 3.4375 15C3.4375 21.375 8.625 26.5625 15 26.5625C21.375 26.5625 26.5625 21.375 26.5625 15C26.5625 8.625 21.375 3.4375 15 3.4375Z" fill="#ED1C24"/>
</svg>
